<?xml version="1.0" standalone="no"?>
<!DOCTYPE svg PUBLIC "-//W3C//DTD SVG 20010904//EN"
 "http://www.w3.org/TR/2001/REC-SVG-20010904/DTD/svg10.dtd">
<svg version="1.0" xmlns="http://www.w3.org/2000/svg"
 width="152.000000pt" height="152.000000pt" viewBox="0 0 152.000000 152.000000"
 preserveAspectRatio="xMidYMid meet">
<metadata>
Created by potrace 1.14, written by Peter Selinger 2001-2017
</metadata>
<g transform="translate(0.000000,152.000000) scale(0.100000,-0.100000)"
fill="#000000" stroke="none">
<path d="M401 997 c-13 -6 -34 -25 -45 -40 -19 -25 -21 -45 -24 -172 -3 -127
-1 -149 17 -190 22 -51 63 -75 126 -75 87 0 135 50 135 140 l0 40 -50 0 -50 0
0 -43 c0 -46 -13 -67 -42 -67 -30 0 -38 35 -38 175 0 140 8 175 38 175 29 0
42 -21 42 -67 l0 -43 50 0 50 0 0 40 c0 62 -24 108 -64 125 -43 18 -112 19
-145 2z"/>
<path d="M691 778 c-24 -123 -46 -229 -49 -236 -3 -10 7 -12 44 -10 l49 3 9
48 c8 47 9 47 47 47 33 0 39 -4 44 -25 3 -14 7 -36 10 -50 5 -22 10 -25 51
-25 43 0 46 2 41 23 -3 12 -25 118 -48 235 l-42 212 -56 0 -57 0 -43 -222z
m128 -75 c1 -8 -11 -13 -30 -13 -27 0 -30 3 -26 23 3 12 8 45 12 72 11 83 17
84 31 5 7 -41 13 -81 13 -87z"/>
<path d="M930 966 c0 -33 2 -35 38 -38 l37 -3 3 -197 2 -198 45 0 45 0 2 198
3 197 38 3 c35 3 37 5 37 38 l0 34 -125 0 -125 0 0 -34z"/>
</g>
</svg>
